<mxfile host="app.diagrams.net" agent="Mozilla/5.0 (Windows NT 10.0; Win64; x64) AppleWebKit/537.36 (KHTML, like Gecko) Chrome/131.0.0.0 Safari/537.36" version="24.8.9" pages="2">
  <diagram name="Pagina-1" id="X4T15eQn3DimgqZF9Rfm">
    <mxGraphModel dx="1562" dy="810" grid="1" gridSize="10" guides="1" tooltips="1" connect="1" arrows="1" fold="1" page="1" pageScale="1" pageWidth="1654" pageHeight="1169" math="1" shadow="0">
      <root>
        <mxCell id="0" />
        <mxCell id="1" parent="0" />
        <mxCell id="h_YFelmwqgsbwrQ14zMe-13" style="edgeStyle=orthogonalEdgeStyle;rounded=0;orthogonalLoop=1;jettySize=auto;html=1;entryX=0;entryY=0.5;entryDx=0;entryDy=0;strokeWidth=2;" parent="1" source="h_YFelmwqgsbwrQ14zMe-7" target="h_YFelmwqgsbwrQ14zMe-12" edge="1">
          <mxGeometry relative="1" as="geometry" />
        </mxCell>
        <mxCell id="h_YFelmwqgsbwrQ14zMe-7" value="" style="verticalLabelPosition=bottom;verticalAlign=top;html=1;shape=mxgraph.basic.layered_rect;dx=10;outlineConnect=0;whiteSpace=wrap;strokeWidth=2;fillColor=#f8cecc;strokeColor=#b85450;" parent="1" vertex="1">
          <mxGeometry x="140" y="560" width="130" height="90" as="geometry" />
        </mxCell>
        <mxCell id="h_YFelmwqgsbwrQ14zMe-14" value="" style="edgeStyle=orthogonalEdgeStyle;rounded=0;orthogonalLoop=1;jettySize=auto;html=1;strokeWidth=2;" parent="1" source="h_YFelmwqgsbwrQ14zMe-10" target="h_YFelmwqgsbwrQ14zMe-12" edge="1">
          <mxGeometry relative="1" as="geometry" />
        </mxCell>
        <mxCell id="h_YFelmwqgsbwrQ14zMe-10" value="&lt;font style=&quot;font-size: 36px;&quot;&gt;$$R$$&lt;/font&gt;" style="whiteSpace=wrap;html=1;aspect=fixed;strokeWidth=2;fillColor=#e1d5e7;strokeColor=#9673a6;" parent="1" vertex="1">
          <mxGeometry x="370" y="460" width="70" height="70" as="geometry" />
        </mxCell>
        <mxCell id="h_YFelmwqgsbwrQ14zMe-16" value="" style="edgeStyle=orthogonalEdgeStyle;rounded=0;orthogonalLoop=1;jettySize=auto;html=1;strokeWidth=2;" parent="1" source="h_YFelmwqgsbwrQ14zMe-12" target="h_YFelmwqgsbwrQ14zMe-15" edge="1">
          <mxGeometry relative="1" as="geometry" />
        </mxCell>
        <mxCell id="h_YFelmwqgsbwrQ14zMe-12" value="" style="shape=sumEllipse;perimeter=ellipsePerimeter;whiteSpace=wrap;html=1;backgroundOutline=1;strokeWidth=2;" parent="1" vertex="1">
          <mxGeometry x="380" y="580" width="50" height="50" as="geometry" />
        </mxCell>
        <mxCell id="h_YFelmwqgsbwrQ14zMe-21" style="edgeStyle=orthogonalEdgeStyle;rounded=0;orthogonalLoop=1;jettySize=auto;html=1;strokeWidth=2;" parent="1" source="h_YFelmwqgsbwrQ14zMe-15" target="h_YFelmwqgsbwrQ14zMe-17" edge="1">
          <mxGeometry relative="1" as="geometry">
            <Array as="points">
              <mxPoint x="615" y="690" />
              <mxPoint x="440" y="690" />
            </Array>
          </mxGeometry>
        </mxCell>
        <mxCell id="h_YFelmwqgsbwrQ14zMe-29" value="" style="edgeStyle=orthogonalEdgeStyle;rounded=0;orthogonalLoop=1;jettySize=auto;html=1;strokeWidth=2;" parent="1" source="h_YFelmwqgsbwrQ14zMe-15" target="h_YFelmwqgsbwrQ14zMe-25" edge="1">
          <mxGeometry relative="1" as="geometry" />
        </mxCell>
        <mxCell id="h_YFelmwqgsbwrQ14zMe-35" style="edgeStyle=orthogonalEdgeStyle;rounded=0;orthogonalLoop=1;jettySize=auto;html=1;strokeWidth=2;" parent="1" source="h_YFelmwqgsbwrQ14zMe-15" target="h_YFelmwqgsbwrQ14zMe-31" edge="1">
          <mxGeometry relative="1" as="geometry">
            <Array as="points">
              <mxPoint x="615" y="690" />
              <mxPoint x="800" y="690" />
            </Array>
          </mxGeometry>
        </mxCell>
        <mxCell id="h_YFelmwqgsbwrQ14zMe-64" style="edgeStyle=orthogonalEdgeStyle;rounded=0;orthogonalLoop=1;jettySize=auto;html=1;strokeWidth=2;" parent="1" source="h_YFelmwqgsbwrQ14zMe-15" target="h_YFelmwqgsbwrQ14zMe-63" edge="1">
          <mxGeometry relative="1" as="geometry" />
        </mxCell>
        <mxCell id="h_YFelmwqgsbwrQ14zMe-88" style="edgeStyle=orthogonalEdgeStyle;rounded=0;orthogonalLoop=1;jettySize=auto;html=1;strokeWidth=2;" parent="1" source="h_YFelmwqgsbwrQ14zMe-15" target="h_YFelmwqgsbwrQ14zMe-86" edge="1">
          <mxGeometry relative="1" as="geometry" />
        </mxCell>
        <mxCell id="h_YFelmwqgsbwrQ14zMe-15" value="" style="verticalLabelPosition=bottom;verticalAlign=top;html=1;shape=mxgraph.basic.layered_rect;dx=10;outlineConnect=0;whiteSpace=wrap;strokeWidth=2;fillColor=#f8cecc;strokeColor=#b85450;" parent="1" vertex="1">
          <mxGeometry x="550" y="560" width="130" height="90" as="geometry" />
        </mxCell>
        <mxCell id="h_YFelmwqgsbwrQ14zMe-20" value="" style="edgeStyle=orthogonalEdgeStyle;rounded=0;orthogonalLoop=1;jettySize=auto;html=1;strokeWidth=2;" parent="1" source="h_YFelmwqgsbwrQ14zMe-17" target="h_YFelmwqgsbwrQ14zMe-19" edge="1">
          <mxGeometry relative="1" as="geometry" />
        </mxCell>
        <mxCell id="h_YFelmwqgsbwrQ14zMe-17" value="&lt;span style=&quot;font-size: 36px;&quot;&gt;$$M_D$$&lt;/span&gt;" style="rounded=1;whiteSpace=wrap;html=1;strokeWidth=2;fillColor=#dae8fc;strokeColor=#6c8ebf;" parent="1" vertex="1">
          <mxGeometry x="385" y="760" width="110" height="60" as="geometry" />
        </mxCell>
        <mxCell id="h_YFelmwqgsbwrQ14zMe-23" value="" style="edgeStyle=orthogonalEdgeStyle;rounded=0;orthogonalLoop=1;jettySize=auto;html=1;strokeWidth=2;" parent="1" source="h_YFelmwqgsbwrQ14zMe-19" target="h_YFelmwqgsbwrQ14zMe-22" edge="1">
          <mxGeometry relative="1" as="geometry" />
        </mxCell>
        <mxCell id="h_YFelmwqgsbwrQ14zMe-19" value="" style="verticalLabelPosition=bottom;verticalAlign=top;html=1;shape=mxgraph.basic.layered_rect;dx=10;outlineConnect=0;whiteSpace=wrap;strokeWidth=2;fillColor=#ffe6cc;strokeColor=#d79b00;" parent="1" vertex="1">
          <mxGeometry x="415" y="900" width="50" height="50" as="geometry" />
        </mxCell>
        <mxCell id="h_YFelmwqgsbwrQ14zMe-37" style="edgeStyle=orthogonalEdgeStyle;rounded=0;orthogonalLoop=1;jettySize=auto;html=1;dashed=1;strokeWidth=2;" parent="1" source="h_YFelmwqgsbwrQ14zMe-22" target="h_YFelmwqgsbwrQ14zMe-17" edge="1">
          <mxGeometry relative="1" as="geometry">
            <Array as="points">
              <mxPoint x="350" y="1040" />
              <mxPoint x="350" y="790" />
            </Array>
          </mxGeometry>
        </mxCell>
        <mxCell id="h_YFelmwqgsbwrQ14zMe-22" value="&lt;span style=&quot;font-size: 18px;&quot;&gt;$$\mathcal{L}_D^{real}$$&lt;/span&gt;" style="whiteSpace=wrap;html=1;aspect=fixed;strokeWidth=2;fillColor=#d5e8d4;strokeColor=#82b366;" parent="1" vertex="1">
          <mxGeometry x="420" y="1020" width="40" height="40" as="geometry" />
        </mxCell>
        <mxCell id="h_YFelmwqgsbwrQ14zMe-24" value="" style="edgeStyle=orthogonalEdgeStyle;rounded=0;orthogonalLoop=1;jettySize=auto;html=1;strokeWidth=2;" parent="1" source="h_YFelmwqgsbwrQ14zMe-25" target="h_YFelmwqgsbwrQ14zMe-27" edge="1">
          <mxGeometry relative="1" as="geometry" />
        </mxCell>
        <mxCell id="h_YFelmwqgsbwrQ14zMe-25" value="&lt;span style=&quot;font-size: 36px;&quot;&gt;$$M_C$$&lt;/span&gt;" style="rounded=1;whiteSpace=wrap;html=1;strokeWidth=2;fillColor=#dae8fc;strokeColor=#6c8ebf;" parent="1" vertex="1">
          <mxGeometry x="560" y="760" width="110" height="60" as="geometry" />
        </mxCell>
        <mxCell id="h_YFelmwqgsbwrQ14zMe-26" value="" style="edgeStyle=orthogonalEdgeStyle;rounded=0;orthogonalLoop=1;jettySize=auto;html=1;strokeWidth=2;" parent="1" source="h_YFelmwqgsbwrQ14zMe-27" target="h_YFelmwqgsbwrQ14zMe-28" edge="1">
          <mxGeometry relative="1" as="geometry" />
        </mxCell>
        <mxCell id="h_YFelmwqgsbwrQ14zMe-27" value="" style="verticalLabelPosition=bottom;verticalAlign=top;html=1;shape=mxgraph.basic.layered_rect;dx=10;outlineConnect=0;whiteSpace=wrap;strokeWidth=2;fillColor=#ffe6cc;strokeColor=#d79b00;" parent="1" vertex="1">
          <mxGeometry x="570" y="900" width="90" height="50" as="geometry" />
        </mxCell>
        <mxCell id="h_YFelmwqgsbwrQ14zMe-38" style="edgeStyle=orthogonalEdgeStyle;rounded=0;orthogonalLoop=1;jettySize=auto;html=1;dashed=1;strokeWidth=2;" parent="1" source="h_YFelmwqgsbwrQ14zMe-28" target="h_YFelmwqgsbwrQ14zMe-25" edge="1">
          <mxGeometry relative="1" as="geometry">
            <Array as="points">
              <mxPoint x="530" y="1040" />
              <mxPoint x="530" y="790" />
            </Array>
          </mxGeometry>
        </mxCell>
        <mxCell id="h_YFelmwqgsbwrQ14zMe-28" value="&lt;span style=&quot;font-size: 18px;&quot;&gt;$$\mathcal{L}_C$$&lt;/span&gt;" style="whiteSpace=wrap;html=1;aspect=fixed;strokeWidth=2;fillColor=#d5e8d4;strokeColor=#82b366;" parent="1" vertex="1">
          <mxGeometry x="595" y="1020" width="40" height="40" as="geometry" />
        </mxCell>
        <mxCell id="h_YFelmwqgsbwrQ14zMe-30" value="" style="edgeStyle=orthogonalEdgeStyle;rounded=0;orthogonalLoop=1;jettySize=auto;html=1;strokeWidth=2;" parent="1" source="h_YFelmwqgsbwrQ14zMe-31" target="h_YFelmwqgsbwrQ14zMe-33" edge="1">
          <mxGeometry relative="1" as="geometry" />
        </mxCell>
        <mxCell id="h_YFelmwqgsbwrQ14zMe-31" value="&lt;span style=&quot;font-size: 36px;&quot;&gt;$$M_S$$&lt;/span&gt;" style="rounded=1;whiteSpace=wrap;html=1;strokeWidth=2;fillColor=#dae8fc;strokeColor=#6c8ebf;" parent="1" vertex="1">
          <mxGeometry x="745" y="760" width="110" height="60" as="geometry" />
        </mxCell>
        <mxCell id="h_YFelmwqgsbwrQ14zMe-32" value="" style="edgeStyle=orthogonalEdgeStyle;rounded=0;orthogonalLoop=1;jettySize=auto;html=1;strokeWidth=2;" parent="1" source="h_YFelmwqgsbwrQ14zMe-33" target="h_YFelmwqgsbwrQ14zMe-34" edge="1">
          <mxGeometry relative="1" as="geometry" />
        </mxCell>
        <mxCell id="h_YFelmwqgsbwrQ14zMe-33" value="" style="verticalLabelPosition=bottom;verticalAlign=top;html=1;shape=mxgraph.basic.layered_rect;dx=10;outlineConnect=0;whiteSpace=wrap;strokeWidth=2;fillColor=#ffe6cc;strokeColor=#d79b00;" parent="1" vertex="1">
          <mxGeometry x="755" y="900" width="90" height="50" as="geometry" />
        </mxCell>
        <mxCell id="h_YFelmwqgsbwrQ14zMe-39" style="edgeStyle=orthogonalEdgeStyle;rounded=0;orthogonalLoop=1;jettySize=auto;html=1;dashed=1;strokeWidth=2;" parent="1" source="h_YFelmwqgsbwrQ14zMe-34" target="h_YFelmwqgsbwrQ14zMe-31" edge="1">
          <mxGeometry relative="1" as="geometry">
            <Array as="points">
              <mxPoint x="710" y="1040" />
              <mxPoint x="710" y="790" />
            </Array>
          </mxGeometry>
        </mxCell>
        <mxCell id="h_YFelmwqgsbwrQ14zMe-34" value="&lt;span style=&quot;font-size: 18px;&quot;&gt;$$\mathcal{L}_S$$&lt;/span&gt;" style="whiteSpace=wrap;html=1;aspect=fixed;strokeWidth=2;fillColor=#d5e8d4;strokeColor=#82b366;" parent="1" vertex="1">
          <mxGeometry x="780" y="1020" width="40" height="40" as="geometry" />
        </mxCell>
        <mxCell id="h_YFelmwqgsbwrQ14zMe-41" style="edgeStyle=orthogonalEdgeStyle;rounded=0;orthogonalLoop=1;jettySize=auto;html=1;strokeWidth=2;" parent="1" source="h_YFelmwqgsbwrQ14zMe-44" target="h_YFelmwqgsbwrQ14zMe-112" edge="1">
          <mxGeometry relative="1" as="geometry">
            <Array as="points">
              <mxPoint x="1365" y="690" />
              <mxPoint x="1210" y="690" />
            </Array>
            <mxPoint x="1220" y="730" as="targetPoint" />
          </mxGeometry>
        </mxCell>
        <mxCell id="h_YFelmwqgsbwrQ14zMe-42" value="" style="edgeStyle=orthogonalEdgeStyle;rounded=0;orthogonalLoop=1;jettySize=auto;html=1;strokeWidth=2;" parent="1" source="h_YFelmwqgsbwrQ14zMe-44" target="h_YFelmwqgsbwrQ14zMe-113" edge="1">
          <mxGeometry relative="1" as="geometry">
            <mxPoint x="1365" y="730" as="targetPoint" />
          </mxGeometry>
        </mxCell>
        <mxCell id="h_YFelmwqgsbwrQ14zMe-43" style="edgeStyle=orthogonalEdgeStyle;rounded=0;orthogonalLoop=1;jettySize=auto;html=1;strokeWidth=2;" parent="1" source="h_YFelmwqgsbwrQ14zMe-44" target="h_YFelmwqgsbwrQ14zMe-114" edge="1">
          <mxGeometry relative="1" as="geometry">
            <Array as="points">
              <mxPoint x="1365" y="690" />
              <mxPoint x="1515" y="690" />
            </Array>
            <mxPoint x="1600" y="660" as="targetPoint" />
          </mxGeometry>
        </mxCell>
        <mxCell id="h_YFelmwqgsbwrQ14zMe-83" style="edgeStyle=orthogonalEdgeStyle;rounded=0;orthogonalLoop=1;jettySize=auto;html=1;strokeWidth=2;" parent="1" source="h_YFelmwqgsbwrQ14zMe-44" target="h_YFelmwqgsbwrQ14zMe-81" edge="1">
          <mxGeometry relative="1" as="geometry" />
        </mxCell>
        <mxCell id="h_YFelmwqgsbwrQ14zMe-44" value="" style="verticalLabelPosition=bottom;verticalAlign=top;html=1;shape=mxgraph.basic.layered_rect;dx=10;outlineConnect=0;whiteSpace=wrap;strokeWidth=2;fillColor=#f8cecc;strokeColor=#b85450;" parent="1" vertex="1">
          <mxGeometry x="1300" y="560" width="130" height="90" as="geometry" />
        </mxCell>
        <mxCell id="h_YFelmwqgsbwrQ14zMe-45" value="" style="edgeStyle=orthogonalEdgeStyle;rounded=0;orthogonalLoop=1;jettySize=auto;html=1;strokeWidth=2;" parent="1" target="h_YFelmwqgsbwrQ14zMe-48" edge="1">
          <mxGeometry relative="1" as="geometry">
            <mxPoint x="1210" y="820" as="sourcePoint" />
          </mxGeometry>
        </mxCell>
        <mxCell id="h_YFelmwqgsbwrQ14zMe-47" value="" style="edgeStyle=orthogonalEdgeStyle;rounded=0;orthogonalLoop=1;jettySize=auto;html=1;strokeWidth=2;" parent="1" source="h_YFelmwqgsbwrQ14zMe-48" target="h_YFelmwqgsbwrQ14zMe-50" edge="1">
          <mxGeometry relative="1" as="geometry" />
        </mxCell>
        <mxCell id="h_YFelmwqgsbwrQ14zMe-72" style="edgeStyle=orthogonalEdgeStyle;rounded=0;orthogonalLoop=1;jettySize=auto;html=1;entryX=0.5;entryY=0;entryDx=0;entryDy=0;strokeWidth=2;" parent="1" source="h_YFelmwqgsbwrQ14zMe-48" target="h_YFelmwqgsbwrQ14zMe-71" edge="1">
          <mxGeometry relative="1" as="geometry" />
        </mxCell>
        <mxCell id="h_YFelmwqgsbwrQ14zMe-48" value="" style="verticalLabelPosition=bottom;verticalAlign=top;html=1;shape=mxgraph.basic.layered_rect;dx=10;outlineConnect=0;whiteSpace=wrap;strokeWidth=2;fillColor=#ffe6cc;strokeColor=#d79b00;" parent="1" vertex="1">
          <mxGeometry x="1185" y="900" width="50" height="50" as="geometry" />
        </mxCell>
        <mxCell id="h_YFelmwqgsbwrQ14zMe-73" style="edgeStyle=orthogonalEdgeStyle;rounded=0;orthogonalLoop=1;jettySize=auto;html=1;dashed=1;strokeWidth=2;" parent="1" source="h_YFelmwqgsbwrQ14zMe-50" target="h_YFelmwqgsbwrQ14zMe-63" edge="1">
          <mxGeometry relative="1" as="geometry">
            <Array as="points">
              <mxPoint x="1265" y="1080" />
              <mxPoint x="1000" y="1080" />
            </Array>
          </mxGeometry>
        </mxCell>
        <mxCell id="h_YFelmwqgsbwrQ14zMe-50" value="&lt;span style=&quot;font-size: 18px;&quot;&gt;$$\mathcal{L}_{adv}$$&lt;/span&gt;" style="whiteSpace=wrap;html=1;aspect=fixed;strokeWidth=2;fillColor=#d5e8d4;strokeColor=#82b366;" parent="1" vertex="1">
          <mxGeometry x="1235" y="1020" width="40" height="40" as="geometry" />
        </mxCell>
        <mxCell id="h_YFelmwqgsbwrQ14zMe-51" value="" style="edgeStyle=orthogonalEdgeStyle;rounded=0;orthogonalLoop=1;jettySize=auto;html=1;strokeWidth=2;" parent="1" target="h_YFelmwqgsbwrQ14zMe-54" edge="1">
          <mxGeometry relative="1" as="geometry">
            <mxPoint x="1365" y="820" as="sourcePoint" />
          </mxGeometry>
        </mxCell>
        <mxCell id="h_YFelmwqgsbwrQ14zMe-53" value="" style="edgeStyle=orthogonalEdgeStyle;rounded=0;orthogonalLoop=1;jettySize=auto;html=1;strokeWidth=2;" parent="1" source="h_YFelmwqgsbwrQ14zMe-54" target="h_YFelmwqgsbwrQ14zMe-56" edge="1">
          <mxGeometry relative="1" as="geometry" />
        </mxCell>
        <mxCell id="h_YFelmwqgsbwrQ14zMe-54" value="" style="verticalLabelPosition=bottom;verticalAlign=top;html=1;shape=mxgraph.basic.layered_rect;dx=10;outlineConnect=0;whiteSpace=wrap;strokeWidth=2;fillColor=#ffe6cc;strokeColor=#d79b00;" parent="1" vertex="1">
          <mxGeometry x="1320" y="900" width="90" height="50" as="geometry" />
        </mxCell>
        <mxCell id="h_YFelmwqgsbwrQ14zMe-69" style="edgeStyle=orthogonalEdgeStyle;rounded=0;orthogonalLoop=1;jettySize=auto;html=1;dashed=1;strokeWidth=2;" parent="1" source="h_YFelmwqgsbwrQ14zMe-56" target="h_YFelmwqgsbwrQ14zMe-63" edge="1">
          <mxGeometry relative="1" as="geometry">
            <Array as="points">
              <mxPoint x="1365" y="1100" />
              <mxPoint x="975" y="1100" />
            </Array>
          </mxGeometry>
        </mxCell>
        <mxCell id="h_YFelmwqgsbwrQ14zMe-56" value="&lt;span style=&quot;font-size: 18px;&quot;&gt;$$\mathcal{L}_{cls}$$&lt;/span&gt;" style="whiteSpace=wrap;html=1;aspect=fixed;strokeWidth=2;fillColor=#d5e8d4;strokeColor=#82b366;" parent="1" vertex="1">
          <mxGeometry x="1345" y="1020" width="40" height="40" as="geometry" />
        </mxCell>
        <mxCell id="h_YFelmwqgsbwrQ14zMe-57" value="" style="edgeStyle=orthogonalEdgeStyle;rounded=0;orthogonalLoop=1;jettySize=auto;html=1;strokeWidth=2;" parent="1" target="h_YFelmwqgsbwrQ14zMe-60" edge="1">
          <mxGeometry relative="1" as="geometry">
            <mxPoint x="1515" y="820" as="sourcePoint" />
          </mxGeometry>
        </mxCell>
        <mxCell id="h_YFelmwqgsbwrQ14zMe-59" value="" style="edgeStyle=orthogonalEdgeStyle;rounded=0;orthogonalLoop=1;jettySize=auto;html=1;strokeWidth=2;" parent="1" source="h_YFelmwqgsbwrQ14zMe-60" target="h_YFelmwqgsbwrQ14zMe-62" edge="1">
          <mxGeometry relative="1" as="geometry" />
        </mxCell>
        <mxCell id="h_YFelmwqgsbwrQ14zMe-60" value="" style="verticalLabelPosition=bottom;verticalAlign=top;html=1;shape=mxgraph.basic.layered_rect;dx=10;outlineConnect=0;whiteSpace=wrap;strokeWidth=2;fillColor=#ffe6cc;strokeColor=#d79b00;" parent="1" vertex="1">
          <mxGeometry x="1470" y="900" width="90" height="50" as="geometry" />
        </mxCell>
        <mxCell id="h_YFelmwqgsbwrQ14zMe-70" style="edgeStyle=orthogonalEdgeStyle;rounded=0;orthogonalLoop=1;jettySize=auto;html=1;dashed=1;strokeWidth=2;" parent="1" source="h_YFelmwqgsbwrQ14zMe-62" target="h_YFelmwqgsbwrQ14zMe-63" edge="1">
          <mxGeometry relative="1" as="geometry">
            <Array as="points">
              <mxPoint x="1515" y="1120" />
              <mxPoint x="950" y="1120" />
            </Array>
          </mxGeometry>
        </mxCell>
        <mxCell id="h_YFelmwqgsbwrQ14zMe-62" value="&lt;span style=&quot;font-size: 18px;&quot;&gt;$$\mathcal{L}_{dom}$$&lt;/span&gt;" style="whiteSpace=wrap;html=1;aspect=fixed;strokeWidth=2;fillColor=#d5e8d4;strokeColor=#82b366;" parent="1" vertex="1">
          <mxGeometry x="1495" y="1020" width="40" height="40" as="geometry" />
        </mxCell>
        <mxCell id="h_YFelmwqgsbwrQ14zMe-67" style="edgeStyle=orthogonalEdgeStyle;rounded=0;orthogonalLoop=1;jettySize=auto;html=1;strokeWidth=2;" parent="1" source="h_YFelmwqgsbwrQ14zMe-63" target="h_YFelmwqgsbwrQ14zMe-44" edge="1">
          <mxGeometry relative="1" as="geometry" />
        </mxCell>
        <mxCell id="h_YFelmwqgsbwrQ14zMe-63" value="&lt;font style=&quot;font-size: 36px;&quot;&gt;$$G$$&lt;/font&gt;" style="rounded=1;whiteSpace=wrap;html=1;strokeWidth=2;fillColor=#dae8fc;strokeColor=#6c8ebf;" parent="1" vertex="1">
          <mxGeometry x="920" y="575" width="110" height="60" as="geometry" />
        </mxCell>
        <mxCell id="h_YFelmwqgsbwrQ14zMe-66" style="edgeStyle=orthogonalEdgeStyle;rounded=0;orthogonalLoop=1;jettySize=auto;html=1;strokeWidth=2;" parent="1" source="h_YFelmwqgsbwrQ14zMe-65" target="h_YFelmwqgsbwrQ14zMe-63" edge="1">
          <mxGeometry relative="1" as="geometry" />
        </mxCell>
        <mxCell id="h_YFelmwqgsbwrQ14zMe-65" value="" style="verticalLabelPosition=bottom;verticalAlign=top;html=1;shape=mxgraph.basic.layered_rect;dx=10;outlineConnect=0;whiteSpace=wrap;strokeWidth=2;fillColor=#fff2cc;strokeColor=#d6b656;" parent="1" vertex="1">
          <mxGeometry x="950" y="470" width="50" height="50" as="geometry" />
        </mxCell>
        <mxCell id="h_YFelmwqgsbwrQ14zMe-74" style="edgeStyle=orthogonalEdgeStyle;rounded=0;orthogonalLoop=1;jettySize=auto;html=1;dashed=1;strokeWidth=2;" parent="1" source="h_YFelmwqgsbwrQ14zMe-71" target="h_YFelmwqgsbwrQ14zMe-112" edge="1">
          <mxGeometry relative="1" as="geometry">
            <mxPoint x="1150" y="760" as="targetPoint" />
            <Array as="points">
              <mxPoint x="1120" y="1040" />
              <mxPoint x="1120" y="790" />
            </Array>
          </mxGeometry>
        </mxCell>
        <mxCell id="h_YFelmwqgsbwrQ14zMe-71" value="&lt;span style=&quot;font-size: 18px;&quot;&gt;$$\mathcal{L}_D^{fake}$$&lt;/span&gt;" style="whiteSpace=wrap;html=1;aspect=fixed;strokeWidth=2;fillColor=#d5e8d4;strokeColor=#82b366;" parent="1" vertex="1">
          <mxGeometry x="1145" y="1020" width="40" height="40" as="geometry" />
        </mxCell>
        <mxCell id="h_YFelmwqgsbwrQ14zMe-84" style="edgeStyle=orthogonalEdgeStyle;rounded=0;orthogonalLoop=1;jettySize=auto;html=1;strokeWidth=2;" parent="1" source="h_YFelmwqgsbwrQ14zMe-81" target="h_YFelmwqgsbwrQ14zMe-82" edge="1">
          <mxGeometry relative="1" as="geometry" />
        </mxCell>
        <mxCell id="h_YFelmwqgsbwrQ14zMe-81" value="&lt;font style=&quot;font-size: 36px;&quot;&gt;$$G$$&lt;/font&gt;" style="rounded=1;whiteSpace=wrap;html=1;strokeWidth=2;fillColor=#dae8fc;strokeColor=#6c8ebf;" parent="1" vertex="1">
          <mxGeometry x="1310" y="420" width="110" height="60" as="geometry" />
        </mxCell>
        <mxCell id="h_YFelmwqgsbwrQ14zMe-93" style="edgeStyle=orthogonalEdgeStyle;rounded=0;orthogonalLoop=1;jettySize=auto;html=1;strokeWidth=2;" parent="1" source="h_YFelmwqgsbwrQ14zMe-82" target="h_YFelmwqgsbwrQ14zMe-92" edge="1">
          <mxGeometry relative="1" as="geometry" />
        </mxCell>
        <mxCell id="h_YFelmwqgsbwrQ14zMe-82" value="" style="verticalLabelPosition=bottom;verticalAlign=top;html=1;shape=mxgraph.basic.layered_rect;dx=10;outlineConnect=0;whiteSpace=wrap;strokeWidth=2;fillColor=#f8cecc;strokeColor=#b85450;" parent="1" vertex="1">
          <mxGeometry x="1300" y="240" width="130" height="90" as="geometry" />
        </mxCell>
        <mxCell id="h_YFelmwqgsbwrQ14zMe-85" style="edgeStyle=orthogonalEdgeStyle;rounded=0;orthogonalLoop=1;jettySize=auto;html=1;strokeWidth=2;" parent="1" source="h_YFelmwqgsbwrQ14zMe-86" target="h_YFelmwqgsbwrQ14zMe-87" edge="1">
          <mxGeometry relative="1" as="geometry" />
        </mxCell>
        <mxCell id="h_YFelmwqgsbwrQ14zMe-86" value="&lt;font style=&quot;font-size: 36px;&quot;&gt;$$G$$&lt;/font&gt;" style="rounded=1;whiteSpace=wrap;html=1;strokeWidth=2;fillColor=#dae8fc;strokeColor=#6c8ebf;" parent="1" vertex="1">
          <mxGeometry x="560" y="420" width="110" height="60" as="geometry" />
        </mxCell>
        <mxCell id="h_YFelmwqgsbwrQ14zMe-90" style="edgeStyle=orthogonalEdgeStyle;rounded=0;orthogonalLoop=1;jettySize=auto;html=1;strokeWidth=2;" parent="1" source="h_YFelmwqgsbwrQ14zMe-87" target="h_YFelmwqgsbwrQ14zMe-89" edge="1">
          <mxGeometry relative="1" as="geometry" />
        </mxCell>
        <mxCell id="h_YFelmwqgsbwrQ14zMe-87" value="" style="verticalLabelPosition=bottom;verticalAlign=top;html=1;shape=mxgraph.basic.layered_rect;dx=10;outlineConnect=0;whiteSpace=wrap;strokeWidth=2;fillColor=#f8cecc;strokeColor=#b85450;" parent="1" vertex="1">
          <mxGeometry x="550" y="240" width="130" height="90" as="geometry" />
        </mxCell>
        <mxCell id="h_YFelmwqgsbwrQ14zMe-98" style="edgeStyle=orthogonalEdgeStyle;rounded=0;orthogonalLoop=1;jettySize=auto;html=1;dashed=1;strokeWidth=2;" parent="1" source="h_YFelmwqgsbwrQ14zMe-89" target="h_YFelmwqgsbwrQ14zMe-86" edge="1">
          <mxGeometry relative="1" as="geometry">
            <Array as="points">
              <mxPoint x="520" y="140" />
              <mxPoint x="520" y="450" />
            </Array>
          </mxGeometry>
        </mxCell>
        <mxCell id="h_YFelmwqgsbwrQ14zMe-89" value="&lt;span style=&quot;font-size: 18px;&quot;&gt;$$\mathcal{L}_{or}$$&lt;/span&gt;" style="whiteSpace=wrap;html=1;aspect=fixed;strokeWidth=2;fillColor=#d5e8d4;strokeColor=#82b366;" parent="1" vertex="1">
          <mxGeometry x="595" y="120" width="40" height="40" as="geometry" />
        </mxCell>
        <mxCell id="h_YFelmwqgsbwrQ14zMe-99" style="edgeStyle=orthogonalEdgeStyle;rounded=0;orthogonalLoop=1;jettySize=auto;html=1;dashed=1;strokeWidth=2;" parent="1" source="h_YFelmwqgsbwrQ14zMe-92" target="h_YFelmwqgsbwrQ14zMe-81" edge="1">
          <mxGeometry relative="1" as="geometry">
            <Array as="points">
              <mxPoint x="1460" y="140" />
              <mxPoint x="1460" y="450" />
            </Array>
          </mxGeometry>
        </mxCell>
        <mxCell id="h_YFelmwqgsbwrQ14zMe-92" value="&lt;span style=&quot;font-size: 18px;&quot;&gt;$$\mathcal{L}_{cyc}$$&lt;/span&gt;" style="whiteSpace=wrap;html=1;aspect=fixed;strokeWidth=2;fillColor=#d5e8d4;strokeColor=#82b366;" parent="1" vertex="1">
          <mxGeometry x="1345" y="120" width="40" height="40" as="geometry" />
        </mxCell>
        <mxCell id="h_YFelmwqgsbwrQ14zMe-95" style="edgeStyle=orthogonalEdgeStyle;rounded=0;orthogonalLoop=1;jettySize=auto;html=1;strokeWidth=2;" parent="1" source="h_YFelmwqgsbwrQ14zMe-94" target="h_YFelmwqgsbwrQ14zMe-86" edge="1">
          <mxGeometry relative="1" as="geometry" />
        </mxCell>
        <mxCell id="h_YFelmwqgsbwrQ14zMe-94" value="" style="verticalLabelPosition=bottom;verticalAlign=top;html=1;shape=mxgraph.basic.layered_rect;dx=10;outlineConnect=0;whiteSpace=wrap;strokeWidth=2;fillColor=#fff2cc;strokeColor=#d6b656;" parent="1" vertex="1">
          <mxGeometry x="730" y="425" width="50" height="50" as="geometry" />
        </mxCell>
        <mxCell id="h_YFelmwqgsbwrQ14zMe-97" style="edgeStyle=orthogonalEdgeStyle;rounded=0;orthogonalLoop=1;jettySize=auto;html=1;strokeWidth=2;" parent="1" source="h_YFelmwqgsbwrQ14zMe-96" target="h_YFelmwqgsbwrQ14zMe-81" edge="1">
          <mxGeometry relative="1" as="geometry" />
        </mxCell>
        <mxCell id="h_YFelmwqgsbwrQ14zMe-96" value="" style="verticalLabelPosition=bottom;verticalAlign=top;html=1;shape=mxgraph.basic.layered_rect;dx=10;outlineConnect=0;whiteSpace=wrap;strokeWidth=2;fillColor=#fff2cc;strokeColor=#d6b656;" parent="1" vertex="1">
          <mxGeometry x="1210" y="425" width="50" height="50" as="geometry" />
        </mxCell>
        <mxCell id="h_YFelmwqgsbwrQ14zMe-100" value="&lt;span style=&quot;font-size: 18px;&quot;&gt;$$M_C(\mathbf{X}_R)$$&lt;/span&gt;" style="text;html=1;align=center;verticalAlign=middle;whiteSpace=wrap;rounded=0;strokeWidth=2;" parent="1" vertex="1">
          <mxGeometry x="585" y="910" width="60" height="30" as="geometry" />
        </mxCell>
        <mxCell id="h_YFelmwqgsbwrQ14zMe-101" value="&lt;span style=&quot;font-size: 36px;&quot;&gt;$$\mathbf{X}$$&lt;/span&gt;" style="text;html=1;align=center;verticalAlign=middle;whiteSpace=wrap;rounded=0;strokeWidth=2;" parent="1" vertex="1">
          <mxGeometry x="170" y="590" width="60" height="30" as="geometry" />
        </mxCell>
        <mxCell id="h_YFelmwqgsbwrQ14zMe-102" value="&lt;span style=&quot;font-size: 36px;&quot;&gt;$$\mathbf{X}_R$$&lt;/span&gt;" style="text;html=1;align=center;verticalAlign=middle;whiteSpace=wrap;rounded=0;strokeWidth=2;" parent="1" vertex="1">
          <mxGeometry x="586" y="590" width="60" height="30" as="geometry" />
        </mxCell>
        <mxCell id="h_YFelmwqgsbwrQ14zMe-104" value="&lt;span style=&quot;font-size: 36px;&quot;&gt;$$\tilde{\mathbf{X}}$$&lt;/span&gt;" style="text;html=1;align=center;verticalAlign=middle;whiteSpace=wrap;rounded=0;strokeWidth=2;" parent="1" vertex="1">
          <mxGeometry x="1335" y="590" width="60" height="30" as="geometry" />
        </mxCell>
        <mxCell id="h_YFelmwqgsbwrQ14zMe-105" value="&lt;span style=&quot;font-size: 36px;&quot;&gt;$$\mathbf{X}_{rec}$$&lt;/span&gt;" style="text;html=1;align=center;verticalAlign=middle;whiteSpace=wrap;rounded=0;strokeWidth=2;" parent="1" vertex="1">
          <mxGeometry x="1335" y="270" width="60" height="30" as="geometry" />
        </mxCell>
        <mxCell id="h_YFelmwqgsbwrQ14zMe-106" value="&lt;span style=&quot;font-size: 36px;&quot;&gt;$$\mathbf{X}_{id}$$&lt;/span&gt;" style="text;html=1;align=center;verticalAlign=middle;whiteSpace=wrap;rounded=0;strokeWidth=2;" parent="1" vertex="1">
          <mxGeometry x="585" y="270" width="60" height="30" as="geometry" />
        </mxCell>
        <mxCell id="h_YFelmwqgsbwrQ14zMe-107" value="&lt;span style=&quot;font-size: 18px;&quot;&gt;$$M_D(\mathbf{X}_R)$$&lt;/span&gt;" style="text;html=1;align=center;verticalAlign=middle;whiteSpace=wrap;rounded=0;strokeWidth=2;" parent="1" vertex="1">
          <mxGeometry x="410" y="910" width="60" height="30" as="geometry" />
        </mxCell>
        <mxCell id="h_YFelmwqgsbwrQ14zMe-108" value="&lt;span style=&quot;font-size: 18px;&quot;&gt;$$M_S(\mathbf{X}_R)$$&lt;/span&gt;" style="text;html=1;align=center;verticalAlign=middle;whiteSpace=wrap;rounded=0;strokeWidth=2;" parent="1" vertex="1">
          <mxGeometry x="770" y="910" width="60" height="30" as="geometry" />
        </mxCell>
        <mxCell id="h_YFelmwqgsbwrQ14zMe-112" value="&lt;span style=&quot;font-size: 36px;&quot;&gt;$$M_D$$&lt;/span&gt;" style="rounded=1;whiteSpace=wrap;html=1;strokeWidth=2;fillColor=#dae8fc;strokeColor=#6c8ebf;" parent="1" vertex="1">
          <mxGeometry x="1155" y="760" width="110" height="60" as="geometry" />
        </mxCell>
        <mxCell id="h_YFelmwqgsbwrQ14zMe-113" value="&lt;span style=&quot;font-size: 36px;&quot;&gt;$$M_C$$&lt;/span&gt;" style="rounded=1;whiteSpace=wrap;html=1;strokeWidth=2;fillColor=#dae8fc;strokeColor=#6c8ebf;" parent="1" vertex="1">
          <mxGeometry x="1310" y="760" width="110" height="60" as="geometry" />
        </mxCell>
        <mxCell id="h_YFelmwqgsbwrQ14zMe-114" value="&lt;span style=&quot;font-size: 36px;&quot;&gt;$$M_S$$&lt;/span&gt;" style="rounded=1;whiteSpace=wrap;html=1;strokeWidth=2;fillColor=#dae8fc;strokeColor=#6c8ebf;" parent="1" vertex="1">
          <mxGeometry x="1460" y="760" width="110" height="60" as="geometry" />
        </mxCell>
        <mxCell id="h_YFelmwqgsbwrQ14zMe-115" value="&lt;span style=&quot;font-size: 18px;&quot;&gt;$$M_D(\tilde{\mathbf{X}})$$&lt;/span&gt;" style="text;html=1;align=center;verticalAlign=middle;whiteSpace=wrap;rounded=0;strokeWidth=2;" parent="1" vertex="1">
          <mxGeometry x="1175" y="910" width="60" height="30" as="geometry" />
        </mxCell>
        <mxCell id="h_YFelmwqgsbwrQ14zMe-116" value="&lt;span style=&quot;font-size: 18px;&quot;&gt;$$M_C(\tilde{\mathbf{X}})$$&lt;/span&gt;" style="text;html=1;align=center;verticalAlign=middle;whiteSpace=wrap;rounded=0;strokeWidth=2;" parent="1" vertex="1">
          <mxGeometry x="1335" y="910" width="60" height="30" as="geometry" />
        </mxCell>
        <mxCell id="h_YFelmwqgsbwrQ14zMe-117" value="&lt;span style=&quot;font-size: 18px;&quot;&gt;$$M_S(\tilde{\mathbf{X}})$$&lt;/span&gt;" style="text;html=1;align=center;verticalAlign=middle;whiteSpace=wrap;rounded=0;strokeWidth=2;" parent="1" vertex="1">
          <mxGeometry x="1485" y="910" width="60" height="30" as="geometry" />
        </mxCell>
        <mxCell id="h_YFelmwqgsbwrQ14zMe-118" value="&lt;font style=&quot;font-size: 18px;&quot;&gt;$$\mathbf{y}_{src}$$&lt;/font&gt;" style="text;html=1;align=center;verticalAlign=middle;whiteSpace=wrap;rounded=0;strokeWidth=2;" parent="1" vertex="1">
          <mxGeometry x="720" y="430" width="60" height="30" as="geometry" />
        </mxCell>
        <mxCell id="h_YFelmwqgsbwrQ14zMe-119" value="&lt;span style=&quot;font-size: 18px;&quot;&gt;$$\mathbf{y}_{trg}$$&lt;/span&gt;" style="text;html=1;align=center;verticalAlign=middle;whiteSpace=wrap;rounded=0;strokeWidth=2;" parent="1" vertex="1">
          <mxGeometry x="940" y="470" width="60" height="30" as="geometry" />
        </mxCell>
        <mxCell id="h_YFelmwqgsbwrQ14zMe-120" value="&lt;span style=&quot;font-size: 18px;&quot;&gt;$$\mathbf{y}_{src}$$&lt;/span&gt;" style="text;html=1;align=center;verticalAlign=middle;whiteSpace=wrap;rounded=0;strokeWidth=2;" parent="1" vertex="1">
          <mxGeometry x="1200" y="430" width="60" height="30" as="geometry" />
        </mxCell>
      </root>
    </mxGraphModel>
  </diagram>
  <diagram id="oQnuh-Seei8MyxFrjXea" name="Pagina-2">
    <mxGraphModel dx="2231" dy="1157" grid="1" gridSize="10" guides="1" tooltips="1" connect="1" arrows="1" fold="1" page="1" pageScale="1" pageWidth="1654" pageHeight="1169" math="1" shadow="0">
      <root>
        <mxCell id="0" />
        <mxCell id="1" parent="0" />
        <mxCell id="HNmreSGx5_cLU2ysBxrh-8" style="edgeStyle=orthogonalEdgeStyle;rounded=0;orthogonalLoop=1;jettySize=auto;html=1;strokeWidth=2;" parent="1" source="rnW2uLXnMgs2G0w_CDy4-1" target="HNmreSGx5_cLU2ysBxrh-1" edge="1">
          <mxGeometry relative="1" as="geometry">
            <Array as="points">
              <mxPoint x="825" y="360" />
              <mxPoint x="305" y="360" />
            </Array>
          </mxGeometry>
        </mxCell>
        <mxCell id="HNmreSGx5_cLU2ysBxrh-9" style="edgeStyle=orthogonalEdgeStyle;rounded=0;orthogonalLoop=1;jettySize=auto;html=1;strokeWidth=2;" parent="1" source="rnW2uLXnMgs2G0w_CDy4-1" target="HNmreSGx5_cLU2ysBxrh-5" edge="1">
          <mxGeometry relative="1" as="geometry">
            <Array as="points">
              <mxPoint x="825" y="360" />
              <mxPoint x="1335" y="360" />
            </Array>
          </mxGeometry>
        </mxCell>
        <mxCell id="HNmreSGx5_cLU2ysBxrh-10" style="edgeStyle=orthogonalEdgeStyle;rounded=0;orthogonalLoop=1;jettySize=auto;html=1;strokeWidth=2;" parent="1" source="rnW2uLXnMgs2G0w_CDy4-1" target="HNmreSGx5_cLU2ysBxrh-3" edge="1">
          <mxGeometry relative="1" as="geometry">
            <Array as="points">
              <mxPoint x="825" y="360" />
              <mxPoint x="550" y="360" />
            </Array>
          </mxGeometry>
        </mxCell>
        <mxCell id="SuTiUJDLcDgKa7PCPWAM-5" style="edgeStyle=orthogonalEdgeStyle;rounded=0;orthogonalLoop=1;jettySize=auto;html=1;strokeWidth=2;" parent="1" source="rnW2uLXnMgs2G0w_CDy4-1" target="SuTiUJDLcDgKa7PCPWAM-3" edge="1">
          <mxGeometry relative="1" as="geometry">
            <Array as="points">
              <mxPoint x="825" y="360" />
              <mxPoint x="945" y="360" />
            </Array>
          </mxGeometry>
        </mxCell>
        <mxCell id="rnW2uLXnMgs2G0w_CDy4-1" value="" style="verticalLabelPosition=bottom;verticalAlign=top;html=1;shape=mxgraph.basic.layered_rect;dx=10;outlineConnect=0;whiteSpace=wrap;strokeWidth=2;fillColor=#f8cecc;strokeColor=#b85450;" parent="1" vertex="1">
          <mxGeometry x="760" y="120" width="130" height="90" as="geometry" />
        </mxCell>
        <mxCell id="rnW2uLXnMgs2G0w_CDy4-2" value="&lt;font style=&quot;font-size: 36px;&quot;&gt;$$\bar{\mathcal{X}}$$&lt;/font&gt;" style="text;html=1;align=center;verticalAlign=middle;whiteSpace=wrap;rounded=0;strokeWidth=2;" parent="1" vertex="1">
          <mxGeometry x="788" y="150" width="60" height="30" as="geometry" />
        </mxCell>
        <mxCell id="HNmreSGx5_cLU2ysBxrh-1" value="&lt;span style=&quot;font-size: 36px;&quot;&gt;$$G(\bar{\mathcal{X}}|y_1)$$&lt;/span&gt;" style="verticalLabelPosition=bottom;verticalAlign=top;html=1;shape=mxgraph.basic.layered_rect;dx=10;outlineConnect=0;whiteSpace=wrap;strokeWidth=2;fillColor=#f8cecc;strokeColor=#b85450;" parent="1" vertex="1">
          <mxGeometry x="240" y="520" width="130" height="90" as="geometry" />
        </mxCell>
        <mxCell id="HNmreSGx5_cLU2ysBxrh-3" value="&lt;span style=&quot;font-size: 36px;&quot;&gt;$$G(\bar{\mathcal{X}}|y_2)$$&lt;/span&gt;" style="verticalLabelPosition=bottom;verticalAlign=top;html=1;shape=mxgraph.basic.layered_rect;dx=10;outlineConnect=0;whiteSpace=wrap;strokeWidth=2;fillColor=#f8cecc;strokeColor=#b85450;" parent="1" vertex="1">
          <mxGeometry x="490" y="520" width="130" height="90" as="geometry" />
        </mxCell>
        <mxCell id="HNmreSGx5_cLU2ysBxrh-5" value="&lt;span style=&quot;font-size: 36px;&quot;&gt;$$G(\bar{\mathcal{X}}|y_{|\mathcal{Y}|})$$&lt;/span&gt;" style="verticalLabelPosition=bottom;verticalAlign=top;html=1;shape=mxgraph.basic.layered_rect;dx=10;outlineConnect=0;whiteSpace=wrap;strokeWidth=2;fillColor=#f8cecc;strokeColor=#b85450;" parent="1" vertex="1">
          <mxGeometry x="1270" y="520" width="130" height="90" as="geometry" />
        </mxCell>
        <mxCell id="SuTiUJDLcDgKa7PCPWAM-2" value="" style="endArrow=none;dashed=1;html=1;dashPattern=1 3;strokeWidth=8;rounded=0;" parent="1" edge="1">
          <mxGeometry width="50" height="50" relative="1" as="geometry">
            <mxPoint x="700" y="564.5799999999999" as="sourcePoint" />
            <mxPoint x="810" y="564.29" as="targetPoint" />
          </mxGeometry>
        </mxCell>
        <mxCell id="SuTiUJDLcDgKa7PCPWAM-3" value="&lt;span style=&quot;font-size: 36px;&quot;&gt;$$G(\bar{\mathcal{X}}|\bar{y})$$&lt;/span&gt;" style="verticalLabelPosition=bottom;verticalAlign=top;html=1;shape=mxgraph.basic.layered_rect;dx=10;outlineConnect=0;whiteSpace=wrap;strokeWidth=2;fillColor=#f8cecc;strokeColor=#b85450;" parent="1" vertex="1">
          <mxGeometry x="880" y="520" width="130" height="90" as="geometry" />
        </mxCell>
        <mxCell id="SuTiUJDLcDgKa7PCPWAM-4" value="" style="endArrow=none;dashed=1;html=1;dashPattern=1 3;strokeWidth=8;rounded=0;" parent="1" edge="1">
          <mxGeometry width="50" height="50" relative="1" as="geometry">
            <mxPoint x="1090" y="564.5799999999999" as="sourcePoint" />
            <mxPoint x="1200" y="564.29" as="targetPoint" />
          </mxGeometry>
        </mxCell>
        <mxCell id="SuTiUJDLcDgKa7PCPWAM-9" value="" style="endArrow=none;html=1;rounded=0;strokeWidth=6;fillColor=#e51400;strokeColor=#FF3333;" parent="1" edge="1">
          <mxGeometry width="50" height="50" relative="1" as="geometry">
            <mxPoint x="840" y="720" as="sourcePoint" />
            <mxPoint x="1040" y="520" as="targetPoint" />
          </mxGeometry>
        </mxCell>
        <mxCell id="SuTiUJDLcDgKa7PCPWAM-10" value="" style="endArrow=none;html=1;rounded=0;strokeWidth=6;fillColor=#e51400;strokeColor=#FF3333;" parent="1" edge="1">
          <mxGeometry width="50" height="50" relative="1" as="geometry">
            <mxPoint x="840" y="520" as="sourcePoint" />
            <mxPoint x="1040" y="720" as="targetPoint" />
          </mxGeometry>
        </mxCell>
        <mxCell id="SuTiUJDLcDgKa7PCPWAM-12" value="&lt;span style=&quot;font-size: 36px; text-wrap-mode: wrap;&quot;&gt;$$G(\bar{\mathcal{X}}|\cdot)$$&lt;/span&gt;" style="text;html=1;align=center;verticalAlign=middle;resizable=0;points=[];autosize=1;strokeColor=none;fillColor=none;" parent="1" vertex="1">
          <mxGeometry x="660" y="250" width="510" height="60" as="geometry" />
        </mxCell>
        <mxCell id="SuTiUJDLcDgKa7PCPWAM-13" value="&lt;font style=&quot;font-size: 36px;&quot;&gt;$$y_1$$&lt;/font&gt;" style="text;html=1;align=center;verticalAlign=middle;resizable=0;points=[];autosize=1;strokeColor=none;fillColor=none;" parent="1" vertex="1">
          <mxGeometry x="270" y="410" width="160" height="60" as="geometry" />
        </mxCell>
        <mxCell id="SuTiUJDLcDgKa7PCPWAM-14" value="&lt;font style=&quot;font-size: 36px;&quot;&gt;$$y_2$$&lt;/font&gt;" style="text;html=1;align=center;verticalAlign=middle;resizable=0;points=[];autosize=1;strokeColor=none;fillColor=none;" parent="1" vertex="1">
          <mxGeometry x="510" y="410" width="160" height="60" as="geometry" />
        </mxCell>
        <mxCell id="SuTiUJDLcDgKa7PCPWAM-15" value="&lt;font style=&quot;font-size: 36px;&quot;&gt;$$\bar{y}$$&lt;/font&gt;" style="text;html=1;align=center;verticalAlign=middle;resizable=0;points=[];autosize=1;strokeColor=none;fillColor=none;" parent="1" vertex="1">
          <mxGeometry x="875" y="410" width="210" height="60" as="geometry" />
        </mxCell>
        <mxCell id="SuTiUJDLcDgKa7PCPWAM-17" value="&lt;font style=&quot;font-size: 36px;&quot;&gt;$$y_{|\mathcal{Y}|}$$&lt;/font&gt;" style="text;html=1;align=center;verticalAlign=middle;resizable=0;points=[];autosize=1;strokeColor=none;fillColor=none;" parent="1" vertex="1">
          <mxGeometry x="1200" y="410" width="370" height="60" as="geometry" />
        </mxCell>
        <mxCell id="0ETvOqpZeODWoug8i0N9-2" value="" style="shape=curlyBracket;whiteSpace=wrap;html=1;rounded=1;flipH=1;labelPosition=right;verticalLabelPosition=middle;align=left;verticalAlign=middle;rotation=90;size=0.5;strokeWidth=3;" parent="1" vertex="1">
          <mxGeometry x="795" y="155" width="45.98" height="1240" as="geometry" />
        </mxCell>
        <mxCell id="0ETvOqpZeODWoug8i0N9-3" value="&lt;font style=&quot;font-size: 36px;&quot;&gt;$$G^{\bar{y}}(\bar{\mathcal{X}})$$&lt;/font&gt;" style="text;html=1;align=center;verticalAlign=middle;resizable=0;points=[];autosize=1;strokeColor=none;fillColor=none;" parent="1" vertex="1">
          <mxGeometry x="533" y="810" width="570" height="60" as="geometry" />
        </mxCell>
      </root>
    </mxGraphModel>
  </diagram>
</mxfile>
